# xmcd
#
# Track frame offsets:
#  150
#  10255
#  20740
#  33705
#  43718
#  55183
#  69355
#  78555
#  88983
#  99030
#  108583
#  120823
#  133925
#  147250
#
# Disc length: 2099 seconds
#
# Revision: 0
# Processed by: cddbd v1.5.1PL2 Copyright (c) Steve Scherf et al.
# Submitted via: Collectorz.com_Music_Collector 6.10
#
DISCID=bb08310e
DTITLE=Various Artist - Spotlite On Josie Records Vol. 4
DYEAR=1900
DGENRE=Doo Wop - Oldies - R&B - Rock and Roll
TTITLE0=The Chaperones - Cruise To The Moon
TTITLE1=The Cadillacs - Sugar Sugar
TTITLE2=The Starlings - My Plea For Love
TTITLE3=The Majors - String Along
TTITLE4=The Cadillacs - The Girl I Love
TTITLE5=The 4 Bars - If I Give My Heart To You
TTITLE6=The Starlings - Fine Brown Frame (unreleased)
TTITLE7=The Cadillacs - Zoom (outtake)
TTITLE8=The Clicks - Peace And Contentment
TTITLE9=The Bluenotes - Wagon Wheels
TTITLE10=Bobby Freemand and The Romancers - You Don't Understand (unreleased)
TTITLE11=The Cadillacs - Gloria
TTITLE12=The Teardrops - My Heart
TTITLE13=The Emanons - Itty Bitty Mama (unreleased)
EXTD=
EXTT0=
EXTT1=
EXTT2=
EXTT3=
EXTT4=
EXTT5=
EXTT6=
EXTT7=
EXTT8=
EXTT9=
EXTT10=
EXTT11=
EXTT12=
EXTT13=
PLAYORDER=
